HIERARCHY
ROOT Hips
{
	OFFSET 0.000000 0.000000 0.000000
	CHANNELS 6 Xposition Yposition Zposition Zrotation Yrotation Xrotation 
	JOINT LHipJoint
	{
		OFFSET 0.000000 0.000000 0.000000
		CHANNELS 3 Zrotation Yrotation Xrotation
		JOINT LeftUpLeg
		{
			OFFSET 1.363060 -1.794630 0.839290
			CHANNELS 3 Zrotation Yrotation Xrotation
			JOINT LeftLeg
			{
				OFFSET 2.448110 -6.726130 0.000000
				CHANNELS 3 Zrotation Yrotation Xrotation
				JOINT LeftFoot
				{
					OFFSET 2.562200 -7.039590 0.000000
					CHANNELS 3 Zrotation Yrotation Xrotation
					JOINT LeftToeBase
					{
						OFFSET 0.157640 -0.433110 2.322550
						CHANNELS 3 Zrotation Yrotation Xrotation
						End Site
						{
							OFFSET 0.000000 0.000000 0.000000
						}
					}
				}
			}
		}
	}
	JOINT RHipJoint
	{
		OFFSET 0.000000 0.000000 0.000000
		CHANNELS 3 Zrotation Yrotation Xrotation
		JOINT RightUpLeg
		{
			OFFSET -1.305520 -1.794630 0.839290
			CHANNELS 3 Zrotation Yrotation Xrotation
			JOINT RightLeg
			{
				OFFSET -2.542530 -6.985550 0.000000
				CHANNELS 3 Zrotation Yrotation Xrotation
				JOINT RightFoot
				{
					OFFSET -2.568260 -7.056230 0.000000
					CHANNELS 3 Zrotation Yrotation Xrotation
					JOINT RightToeBase
					{
						OFFSET -0.164730 -0.452590 2.363150
						CHANNELS 3 Zrotation Yrotation Xrotation
						End Site
						{
							OFFSET 0.000000 0.000000 0.000000
						}
					}
				}
			}
		}
	}
	JOINT LowerBack
	{
		OFFSET 0.000000 0.000000 0.000000
		CHANNELS 3 Zrotation Yrotation Xrotation
		JOINT Spine
		{
			OFFSET 0.028270 2.035590 -0.193380
			CHANNELS 3 Zrotation Yrotation Xrotation
			JOINT Spine1
			{
				OFFSET 0.056720 2.048850 -0.042750
				CHANNELS 3 Zrotation Yrotation Xrotation
				JOINT Neck
				{
					OFFSET 0.000000 0.000000 0.000000
					CHANNELS 3 Zrotation Yrotation Xrotation
					JOINT Neck1
					{
						OFFSET -0.054170 1.746240 0.172020
						CHANNELS 3 Zrotation Yrotation Xrotation
						JOINT Head
						{
							OFFSET 0.104070 1.761360 -0.123970
							CHANNELS 3 Zrotation Yrotation Xrotation
							End Site
							{
								OFFSET 0.000000 0.000000 0.000000
							}
						}
					}
				}
				JOINT LeftShoulder
				{
					OFFSET 0.000000 0.000000 0.000000
					CHANNELS 3 Zrotation Yrotation Xrotation
					JOINT LeftArm
					{
						OFFSET 3.362410 1.200890 -0.311210
						CHANNELS 3 Zrotation Yrotation Xrotation
						JOINT LeftForeArm
						{
							OFFSET 4.983000 -0.000000 -0.000000
							CHANNELS 3 Zrotation Yrotation Xrotation
							JOINT LeftHand
							{
								OFFSET 3.483560 -0.000000 -0.000000
								CHANNELS 3 Zrotation Yrotation Xrotation
								JOINT LeftFingerBase
								{
									OFFSET 0.000000 0.000000 0.000000
									CHANNELS 3 Zrotation Yrotation Xrotation
									JOINT LeftHandIndex1
									{
										OFFSET 0.715260 -0.000000 -0.000000
										CHANNELS 3 Zrotation Yrotation Xrotation
										End Site
										{
											OFFSET 0.000000 0.000000 0.000000
										}
									}
								}
								JOINT LThumb
								{
									OFFSET 0.000000 0.000000 0.000000
									CHANNELS 3 Zrotation Yrotation Xrotation
									End Site
									{
										OFFSET 0.000000 0.000000 0.000000
									}
								}
							}
						}
					}
				}
				JOINT RightShoulder
				{
					OFFSET 0.000000 0.000000 0.000000
					CHANNELS 3 Zrotation Yrotation Xrotation
					JOINT RightArm
					{
						OFFSET -3.136600 1.374050 -0.404650
						CHANNELS 3 Zrotation Yrotation Xrotation
						JOINT RightForeArm
						{
							OFFSET -5.241900 -0.000000 -0.000000
							CHANNELS 3 Zrotation Yrotation Xrotation
							JOINT RightHand
							{
								OFFSET -3.444170 -0.000000 -0.000000
								CHANNELS 3 Zrotation Yrotation Xrotation
								JOINT RightFingerBase
								{
									OFFSET 0.000000 0.000000 0.000000
									CHANNELS 3 Zrotation Yrotation Xrotation
									JOINT RightHandIndex1
									{
										OFFSET -0.622530 -0.000000 -0.000000
										CHANNELS 3 Zrotation Yrotation Xrotation
										End Site
										{
											OFFSET 0.000000 0.000000 0.000000
										}
									}
								}
								JOINT RThumb
								{
									OFFSET 0.000000 0.000000 0.000000
									CHANNELS 3 Zrotation Yrotation Xrotation
									End Site
									{
										OFFSET 0.000000 0.000000 0.000000
									}
								}
							}
						}
					}
				}
			}
		}
	}
}
MOTION
Frames: 8
Frame Time: 0.008333
24.398815 15.936425 2.826508 -155.056251 -81.030405 -163.385383 -8.206102 -1.625344 0.443953 -13.164720 -2.553271 -78.244493 -2.427676 3.507160 44.680491 2.735398 8.556655 -14.545056 -0.480100 -0.000000 -23.187801 11.081823 -0.619095 -2.647350 4.763866 0.638153 -34.178589 -0.140974 -3.766199 58.574155 0.116532 4.694782 1.785131 0.740800 -0.000000 -71.480700 -6.207074 1.186168 5.590663 -1.973098 1.620207 -1.953869 -4.866862 1.687367 -0.585318 6.971332 -8.089854 -9.765999 -0.790185 0.011671 -1.107372 0.000000 0.000000 0.000000 4.763477 22.958123 2.421162 -70.154182 30.282329 13.890314 -179.336079 -71.803274 -179.994887 -0.768558 1.923616 -0.011822 0.045918 0.210107 -0.000000 0.000000 0.000000 0.000000 0.000000 0.000000 0.000000 -3.542111 0.690254 -1.752788 81.305322 3.123493 20.057216 179.791903 70.357653 179.954394 -4.624292 7.716936 -0.340919 0.038515 -0.672808 -0.000000 0.000000 0.000000 0.000000 0.000000 0.000000 0.000000 
24.235305 15.835683 2.837874 -154.925461 -80.743468 -163.712237 -8.214574 -1.720329 0.124239 -13.348742 -2.108129 -78.978020 -2.224323 3.891394 48.022679 2.797774 8.665196 -15.886953 -0.774300 0.000000 -21.194800 11.162828 -0.519890 -2.695657 4.463063 0.667350 -35.084000 -0.341107 -3.957016 61.525219 0.058808 4.211630 0.605977 0.587700 0.000000 -70.802500 -6.347569 1.140543 5.943615 -2.015520 1.579700 -1.917824 -4.939878 1.651875 -0.780458 7.015684 -7.700477 -9.767213 -0.925233 0.001868 -1.125388 0.000000 0.000000 0.000000 4.077910 22.601958 2.470030 -70.417990 28.968060 13.309455 -179.336625 -71.857104 -179.997077 -0.205938 2.208404 -0.003615 0.030815 0.213203 -0.000000 0.000000 0.000000 0.000000 0.000000 0.000000 0.000000 -3.026673 1.144805 -1.649225 81.900330 2.786012 19.544296 179.805449 70.846914 179.955672 -4.362447 7.831266 -0.325361 0.026617 -0.674699 -0.000000 0.000000 0.000000 0.000000 0.000000 0.000000 0.000000 
24.075434 15.736038 2.847854 -155.009275 -80.476109 -163.870390 -8.216497 -1.818671 -0.221840 -13.590138 -1.649221 -79.554800 -2.032545 4.242530 51.211886 2.874181 8.820455 -17.380786 -1.107700 -0.000000 -19.618700 11.248127 -0.411723 -2.762082 4.131521 0.685401 -35.974158 -0.548400 -4.154117 64.410134 0.010840 3.815659 -0.472560 0.468700 0.000000 -70.168601 -6.494543 1.096505 6.353466 -2.060409 1.539845 -1.875943 -5.015932 1.617044 -1.006091 7.047885 -7.286529 -9.713021 -1.074895 -0.009922 -1.129435 0.000000 0.000000 0.000000 3.343453 22.101376 2.505678 -70.589091 27.502909 12.784035 -179.335402 -71.968721 -179.999719 0.408241 2.556333 0.008701 0.013750 0.215436 -0.000000 0.000000 0.000000 0.000000 0.000000 0.000000 0.000000 -2.442428 1.602677 -1.525318 82.469068 2.404713 18.951829 179.823867 71.470969 179.956328 -4.181786 7.938781 -0.315203 0.016592 -0.675223 -0.000000 0.000000 0.000000 0.000000 0.000000 0.000000 0.000000 
23.918978 15.638723 2.856367 -155.330944 -80.239790 -163.835355 -8.213566 -1.915163 -0.587142 -13.888439 -1.194207 -79.942882 -1.856561 4.555600 54.194094 2.964964 9.023533 -18.999202 -1.479800 -0.000000 -18.508199 11.336903 -0.296846 -2.843723 3.765734 0.686544 -36.850622 -0.761838 -4.357302 67.205024 -0.027074 3.503154 -1.447652 0.376900 0.000000 -69.525000 -6.651210 1.053754 6.807478 -2.107540 1.500048 -1.827424 -5.091164 1.582055 -1.248280 7.066015 -6.864716 -9.601982 -1.234178 -0.023285 -1.118516 0.000000 0.000000 0.000000 2.591441 21.466191 2.526200 -70.670805 25.859495 12.338723 -179.333306 -72.186511 179.997146 1.066344 2.971758 0.026522 -0.005220 0.216657 -0.000000 0.000000 0.000000 0.000000 0.000000 0.000000 0.000000 -1.798236 2.032907 -1.383830 83.000036 1.986985 18.310710 179.849351 72.265303 179.956077 -4.121272 8.031560 -0.313447 0.009358 -0.673702 -0.000000 0.000000 0.000000 0.000000 0.000000 0.000000 0.000000 
23.764888 15.544821 2.863587 -155.869672 -80.042982 -163.626782 -8.208560 -2.005182 -0.963218 -14.234569 -0.756095 -80.125534 -1.698600 4.828322 56.934772 3.068277 9.268552 -20.703321 -1.887100 -0.000000 -17.867000 11.427167 -0.177206 -2.936566 3.372776 0.668694 -37.717687 -0.980294 -4.565142 69.891410 -0.056218 3.257702 -2.330510 0.304700 -0.000000 -68.811600 -6.810871 1.012011 7.290027 -2.154664 1.459526 -1.773371 -5.162535 1.545808 -1.497132 7.066389 -6.445108 -9.431158 -1.397899 -0.037848 -1.090818 0.000000 0.000000 0.000000 1.837151 20.695537 2.529839 -70.664383 24.043033 11.974487 -179.330688 -72.537497 179.993491 1.757903 3.453297 0.051246 -0.025872 0.216775 -0.000000 0.000000 0.000000 0.000000 0.000000 0.000000 0.000000 -1.109307 2.414383 -1.226942 83.480550 1.529320 17.647257 179.882970 73.263788 179.954699 -4.215175 8.101079 -0.322792 0.005624 -0.669466 -0.000000 0.000000 0.000000 0.000000 0.000000 0.000000 0.000000 
23.612346 15.455102 2.869745 -156.597021 -79.893345 -163.268937 -8.204529 -2.084776 -1.341110 -14.617876 -0.346276 -80.097486 -1.559353 5.059975 59.415637 3.180922 9.546594 -22.446192 -2.323100 0.000000 -17.663500 11.516971 -0.054462 -3.036170 2.962022 0.628914 -38.582372 -1.202325 -4.776036 72.457663 -0.078940 3.055689 -3.144521 0.245000 0.000000 -67.968400 -6.966368 0.969852 7.784110 -2.199366 1.416619 -1.713666 -5.227082 1.506494 -1.736949 7.048102 -6.042355 -9.204427 -1.559511 -0.053015 -1.046459 0.000000 0.000000 0.000000 1.103412 19.810296 2.515581 -70.574912 22.047559 11.701407 -179.328565 -73.050632 179.989303 2.471829 3.996974 0.084166 -0.047913 0.215807 -0.000000 0.000000 0.000000 0.000000 0.000000 0.000000 0.000000 -0.395525 2.722475 -1.059674 83.898310 1.035798 16.992890 179.924287 74.491401 179.952026 -4.493843 8.139376 -0.345440 0.005935 -0.661974 0.000000 0.000000 0.000000 0.000000 0.000000 0.000000 0.000000 
23.460566 15.370218 2.875199 -157.465199 -79.795640 -162.804325 -8.204844 -2.150951 -1.711287 -15.022687 0.028103 -79.865499 -1.438129 5.251325 61.631827 3.298520 9.845993 -24.177603 -2.777800 -0.000000 -17.834100 11.603941 0.070348 -3.137906 2.548201 0.566174 -39.453163 -1.426246 -4.987652 74.896622 -0.098259 2.869462 -3.919350 0.192500 0.000001 -66.945800 -7.106239 0.925024 8.272093 -2.238363 1.368995 -1.648960 -5.282510 1.461693 -1.954005 7.010582 -5.667906 -8.927838 -1.712554 -0.068193 -0.986075 0.000000 0.000000 0.000000 0.405319 18.832769 2.483153 -70.409617 19.883335 11.517926 -179.328067 -73.736816 179.984591 3.195374 4.593526 0.125981 -0.070900 0.213873 -0.000000 0.000000 0.000000 0.000000 0.000000 0.000000 0.000000 0.318907 2.940449 -0.886980 84.242329 0.507374 16.375556 179.970811 75.964912 179.948029 -4.975878 8.137281 -0.382494 0.010490 -0.650806 0.000000 0.000000 0.000000 0.000000 0.000000 0.000000 0.000000 
23.308986 15.290593 2.880302 -158.430231 -79.753150 -162.271970 -8.212344 -2.201856 -2.065185 -15.433805 0.361667 -79.445503 -1.333293 5.404368 63.590400 3.416241 10.154366 -25.850738 -3.239200 0.000000 -18.285599 11.685737 0.197058 -3.238017 2.146628 0.479305 -40.340109 -1.650169 -5.197813 77.205732 -0.117191 2.673120 -4.686824 0.143400 0.000000 -65.714401 -7.220618 0.873999 8.738704 -2.268677 1.313400 -1.577982 -5.326566 1.408350 -2.129596 6.955921 -5.339875 -8.615882 -1.850020 -0.082625 -0.912928 0.000000 0.000000 0.000000 -0.235990 17.812944 2.432942 -70.181097 17.540519 11.436567 -179.331008 -74.611411 179.979383 3.915968 5.229243 0.176885 -0.094416 0.211257 -0.000000 0.000000 0.000000 0.000000 0.000000 0.000000 0.000000 1.007383 3.048329 -0.716026 84.503877 -0.043742 15.828759 -179.981748 77.691031 179.942862 -5.667569 8.085555 -0.433151 0.019223 -0.635710 0.000000 0.000000 0.000000 0.000000 0.000000 0.000000 0.000000 
